<?xml version="1.0" encoding="utf-8"?>
<!-- Generator: Adobe Illustrator 20.1.0, SVG Export Plug-In . SVG Version: 6.00 Build 0)  -->
<!DOCTYPE svg PUBLIC "-//W3C//DTD SVG 1.1//EN" "http://www.w3.org/Graphics/SVG/1.1/DTD/svg11.dtd">
<svg version="1.1" id="Layer_1" xmlns="http://www.w3.org/2000/svg" xmlns:xlink="http://www.w3.org/1999/xlink" x="0px" y="0px"
	 viewBox="0 0 200 307" style="enable-background:new 0 0 200 307;" xml:space="preserve">
<style type="text/css">
	.st0{clip-path:url(#SVGID_2_);fill:#F2F2F2;}
	.st1{clip-path:url(#SVGID_2_);fill:#6E6F72;}
	.st2{clip-path:url(#SVGID_2_);fill:#939598;}
	.st3{clip-path:url(#SVGID_2_);fill:#BDBEC0;}
	.st4{clip-path:url(#SVGID_2_);fill:#E6E7E7;}
	.st5{clip-path:url(#SVGID_2_);fill:#A8AAAD;}
	.st6{clip-path:url(#SVGID_2_);fill:#818285;}
	.st7{clip-path:url(#SVGID_2_);fill:#D2D3D4;}
	.st8{clip-path:url(#SVGID_2_);fill:#CBCBCB;}
	.st9{opacity:0.89;}
	.st10{clip-path:url(#SVGID_4_);fill:url(#SVGID_5_);}
</style>
<g>
	<defs>
		<rect id="SVGID_1_" x="0.5" y="-0.4" width="199.5" height="307.8"/>
	</defs>
	<clipPath id="SVGID_2_">
		<use xlink:href="#SVGID_1_"  style="overflow:visible;"/>
	</clipPath>
	<polygon class="st0" points="271.4,286.8 271.4,310 257.1,316.2 257.1,316.2 256.9,316.3 256.8,316.3 256.7,316.4 256.7,316.4 
		256.1,316.6 256.4,316 256.4,316 256.4,315.9 256.4,315.9 256.6,315.6 	"/>
	<polygon class="st0" points="61.9,280 61.3,280.2 61.2,280.3 -8,310 -8,286.8 19.9,232.5 20,232.3 20,232.3 20,232.3 20,232.3 
		20.3,231.6 20.8,232.2 20.8,232.2 20.8,232.2 21.3,232.8 61.4,279.4 61.4,279.4 	"/>
	<polygon class="st1" points="159.6,277.2 159.5,278 159.5,278 159.5,278.1 153.1,325.8 145.6,325.8 142.5,286 142.4,285.4 
		142.4,284.6 143,284.4 158.5,277.7 158.9,277.5 159,277.5 	"/>
	<polygon class="st1" points="153.1,-5.8 148.9,26.5 148.9,26.5 148.8,26.9 148.8,26.9 148.6,28.8 148.6,28.8 148.5,28.8 
		148.4,29.6 148.4,28.8 148.4,28.8 148.3,28.1 148.2,26.5 148.2,26.4 145.6,-5.8 	"/>
	<polygon class="st2" points="271.4,310 271.4,322.8 259.1,317.9 257.6,317.2 257.1,317 256.9,317 256.7,316.9 256.7,316.9 
		256.7,316.9 256.1,316.6 256.7,316.4 256.7,316.4 256.8,316.3 256.9,316.3 257.1,316.2 257.1,316.2 	"/>
	<polygon class="st2" points="82.8,325.8 -0.6,325.8 -8,322.8 -8,310 61.2,280.3 61.3,280.2 61.9,280 62.2,280.6 62.2,280.6 	"/>
	<polygon class="st2" points="101.6,35.7 101,35.5 100.9,35.4 100.8,35.4 100.7,35.3 -0.6,-5.8 82.8,-5.8 100.6,33.6 100.6,33.6 
		101.1,34.7 101.2,34.7 101.2,34.9 101.3,35 	"/>
	<polygon class="st3" points="133.5,219.7 222.9,95.9 167.1,188.8 	"/>
	<polygon class="st1" points="95.9,325.8 82.8,325.8 62.2,280.6 62.2,280.6 61.9,280 62.4,279.4 85.3,254.1 85.3,254.1 85.4,254 
		85.9,253.4 86,254.2 86,254.2 86,254.3 86,254.4 86,254.4 	"/>
	<polygon class="st1" points="101.6,35.7 101.3,35 101.2,34.9 101.2,34.7 101.1,34.7 100.6,33.6 100.6,33.6 82.8,-5.8 95.9,-5.8 
		101.3,33.3 101.3,33.3 101.4,34.5 101.4,34.5 101.5,34.8 101.5,34.9 	"/>
	<polygon class="st4" points="20.3,231.6 85.9,253.5 61.9,280 	"/>
	<polygon class="st0" points="142.4,284.6 142.1,285.3 141.8,285.8 122.1,325.8 95.9,325.8 86,254.4 86,254.4 86,254.3 86,254.2 
		86,254.2 85.9,253.4 86.5,253.8 86.5,253.8 86.6,253.8 86.6,253.8 89.4,255.4 141.8,284.3 141.8,284.3 	"/>
	<polygon class="st0" points="122.1,-5.8 102.1,34.7 102.1,34.7 102,34.9 102,34.9 101.9,35 101.6,35.7 101.5,34.9 101.5,34.8 
		101.4,34.5 101.4,34.5 101.3,33.3 101.3,33.3 95.9,-5.8 	"/>
	<polygon class="st2" points="271.4,213.3 271.4,236.7 194,250.5 194,250.5 193.8,250.5 193.8,250.6 193.8,250.6 193.1,250.7 
		193.5,250 193.5,250 193.5,250 193.5,249.9 193.6,249.8 226.2,185.2 226.3,185.2 226.3,185 226.3,185 226.7,184.3 227.2,184.7 
		227.2,184.7 227.3,184.7 	"/>
	<polygon class="st2" points="20.3,231.6 19.7,231.7 19.7,231.7 19.5,231.8 19.5,231.8 19.3,231.8 -8,236.7 -8,213.3 18.5,230.4 
		19.4,231 19.4,231 19.5,231.1 19.8,231.2 19.8,231.2 	"/>
	<polygon class="st0" points="114.9,100.3 148.4,29.6 163.3,104.8 	"/>
	<polygon class="st5" points="271.4,322.8 271.4,325.8 269.2,325.8 258.8,318.6 258.8,318.5 257,317.3 256.8,317.1 256.7,317.1 
		256.6,317 256.6,317 256.1,316.6 256.7,316.9 256.7,316.9 256.7,316.9 256.9,317 257.1,317 257.6,317.2 259.1,317.9 	"/>
	<polygon class="st5" points="-0.6,325.8 -8,325.8 -8,322.8 	"/>
	<polygon class="st5" points="271.4,-5.8 271.4,-4.3 269.2,-5.8 	"/>
	<polygon class="st5" points="101.6,35.7 101.1,36.1 101.1,36.1 100.9,36.3 79,54 79,54 77.7,55 77.7,55 77.1,55.5 76.6,55.1 
		75.6,54.4 75.6,54.4 -8,-4.2 -8,-5.8 -0.6,-5.8 100.7,35.3 100.8,35.4 100.9,35.4 101,35.5 	"/>
	<polygon class="st6" points="145.6,325.8 122.1,325.8 141.8,285.8 142.1,285.3 142.4,284.6 142.4,285.4 142.5,286 	"/>
	<polygon class="st6" points="148.4,29.6 147.8,29.7 147.8,29.7 147.6,29.7 145,30 144.9,30.1 102.4,35.6 102.3,35.6 102.3,35.6 
		101.6,35.7 101.9,35 102,34.9 102,34.9 102.1,34.7 102.1,34.7 122.1,-5.8 145.6,-5.8 148.2,26.4 148.2,26.5 148.3,28.1 148.4,28.8 
		148.4,28.8 	"/>
	<polygon class="st7" points="271.4,195.5 271.4,213.3 227.3,184.7 227.2,184.7 227.2,184.7 226.7,184.3 244.8,162.8 244.8,162.8 
		244.8,162.8 245.3,162.2 245.7,162.8 245.7,162.8 245.8,162.9 	"/>
	<polygon class="st7" points="20.3,231.6 19.8,231.2 19.8,231.2 19.5,231.1 19.4,231 19.4,231 18.5,230.4 -8,213.3 -8,195.5 
		18.9,229.8 19.4,230.4 19.8,230.9 19.9,231 19.9,231 	"/>
	<polygon class="st4" points="85.9,253.5 159.6,277.2 142.4,284.6 	"/>
	<polygon class="st3" points="264.5,325.8 259.1,325.8 256.7,318.4 256.6,318.3 256.5,317.8 256.4,317.6 256.3,317.4 256.3,317.3 
		256.1,316.6 256.5,317.1 256.6,317.2 256.7,317.3 257.2,317.8 257.3,317.9 258.4,319.2 	"/>
	<polygon class="st3" points="271.4,1.7 271.4,31 259.1,-5.8 264.5,-5.8 	"/>
	<polygon class="st3" points="34,47.4 33.4,47.7 33.3,47.7 2.6,60.1 2.6,60.1 2.4,60.2 1.8,60.4 1.6,59.7 -8,31 -8,1.7 33.4,46.8 
		33.5,46.9 	"/>
	<polygon class="st5" points="226.7,184.3 222.9,95.9 245.3,162.2 	"/>
	<polygon class="st0" points="77.1,55.5 101.6,35.7 148.4,29.6 	"/>
	<polygon class="st5" points="133.5,219.7 163.3,104.8 222.9,95.9 	"/>
	<polygon class="st0" points="259.1,325.8 255.8,325.8 256,318.6 256,317.6 256,317.5 256,317.4 256,317.4 256.1,316.6 256.3,317.3 
		256.3,317.4 256.4,317.6 256.5,317.8 256.6,318.3 256.7,318.4 	"/>
	<polygon class="st0" points="271.4,31 271.4,67.1 254.2,78.8 254.2,78.8 254,78.9 254,78.9 253.9,78.9 253.9,78.9 253.9,78.9 
		253.3,79.3 253.3,78.6 253.3,78.6 253.4,78.4 253.4,78 253.4,76.3 253.4,76.3 255.8,-5.8 259.1,-5.8 	"/>
	<polygon class="st0" points="1.8,60.4 1.2,60.8 -8,67.1 -8,31 1.6,59.7 	"/>
	<polygon class="st1" points="3.2,153.4 70.2,104.8 66.5,144.6 	"/>
	<polygon class="st3" points="1.8,60.4 34,47.4 70.2,104.8 	"/>
	<polygon class="st1" points="34,47.4 77.1,55.5 70.2,104.8 	"/>
	<polygon class="st7" points="148.4,29.6 222.9,95.9 163.3,104.8 	"/>
	<polygon class="st2" points="114.9,100.3 77.1,55.5 148.4,29.6 	"/>
	<polygon class="st4" points="66.5,144.6 70.2,104.8 114.9,100.3 	"/>
	<polygon class="st7" points="133.5,219.7 114.9,100.3 163.3,104.8 	"/>
	<polygon class="st2" points="271.4,67.1 271.4,84.1 254.5,79.6 254.3,79.6 254,79.5 254,79.5 253.3,79.3 253.9,78.9 253.9,78.9 
		253.9,78.9 254,78.9 254,78.9 254.2,78.8 254.2,78.8 	"/>
	<polygon class="st2" points="70.2,104.8 69.6,104.6 69.6,104.6 69.3,104.5 69.2,104.5 69.1,104.5 69.1,104.5 67.9,104.2 
		67.9,104.1 -8,84.1 -8,67.1 1.2,60.8 1.8,60.4 2.4,60.8 2.6,60.9 68.1,103.4 68.1,103.4 68.8,103.9 69.5,104.3 69.6,104.3 
		69.6,104.4 69.7,104.4 	"/>
	<polygon class="st6" points="70.2,104.8 77.1,55.5 114.9,100.3 	"/>
	<polygon class="st6" points="269.2,325.8 264.5,325.8 258.4,319.2 257.3,317.9 257.2,317.8 256.7,317.3 256.6,317.2 256.5,317.1 
		256.1,316.6 256.6,317 256.6,317 256.7,317.1 256.8,317.1 257,317.3 258.8,318.5 258.8,318.6 	"/>
	<polygon class="st6" points="271.4,-4.3 271.4,1.7 264.5,-5.8 269.2,-5.8 	"/>
	<polygon class="st6" points="76.5,55.3 76.5,55.3 75.4,55.1 34.9,47.6 34.6,47.5 34,47.4 33.5,46.9 33.4,46.8 -8,1.7 -8,-4.2 
		75.6,54.4 75.6,54.4 76.6,55.1 77.1,55.5 	"/>
	<polygon class="st2" points="271.4,120.1 271.4,145.6 247.3,161 245.9,161.9 245.9,161.9 245.3,162.2 245,161.5 245,161.5 
		223.7,98.2 223.7,98.1 223.3,96.9 223.2,96.8 223.2,96.7 223.2,96.6 222.9,95.9 223.5,96.2 223.5,96.2 223.6,96.3 223.8,96.3 
		223.8,96.3 	"/>
	<polygon class="st2" points="14.4,131.3 13.8,131.7 13.6,131.8 13.2,132 -8,145.6 -8,120.1 12.9,130.6 12.9,130.6 13.6,130.9 
		13.7,131 	"/>
	<polygon class="st4" points="215.5,325.8 162.7,325.8 192.6,252 192.7,251.7 192.8,251.5 192.8,251.4 192.9,251.4 193.1,250.7 
		193.4,251.4 193.4,251.4 193.4,251.4 193.5,251.7 193.6,252.2 194.2,254.3 	"/>
	<polygon class="st4" points="226.2,30 225.5,30 149.5,29.6 149.2,29.6 148.4,29.6 148.7,28.9 148.7,28.9 148.8,28.8 149,28.2 
		149,28.2 149.4,27.2 149.4,27.2 162.7,-5.8 215.5,-5.8 225.3,27.1 225.8,28.7 225.8,28.7 225.9,29.2 226,29.3 	"/>
	<polygon class="st2" points="85.9,253.5 66.5,144.6 133.5,219.7 	"/>
	<polygon class="st0" points="236.2,322.1 236.1,322.8 235.9,323.6 235.3,325.8 223.8,325.8 222.7,309.4 222.7,309.1 222.7,308.3 
		223.4,309 223.7,309.4 235.7,321.6 	"/>
	<polygon class="st0" points="235.3,-5.8 226.7,27.9 226.7,28 226.5,28.7 226.4,29.2 226.4,29.3 226.4,29.3 226.2,30 226.1,29.2 
		226.1,29.2 226,27.8 226,27.8 226,27 223.8,-5.8 	"/>
	<polygon class="st7" points="85.9,253.5 133.5,219.7 159.6,277.2 	"/>
	<polygon class="st6" points="193.1,250.7 192.9,251.4 192.8,251.4 192.8,251.5 192.7,251.7 192.6,252 162.7,325.8 153.1,325.8 
		159.5,278.1 159.5,278 159.5,278 159.6,277.2 160.2,276.8 160.2,276.8 192.1,251.5 192.5,251.2 192.6,251.1 192.6,251.1 
		192.6,251.1 	"/>
	<polygon class="st6" points="162.7,-5.8 149.4,27.2 149.4,27.2 149,28.2 149,28.2 148.8,28.8 148.7,28.9 148.7,28.9 148.4,29.6 
		148.5,28.8 148.6,28.8 148.6,28.8 148.8,26.9 148.8,26.9 148.9,26.5 148.9,26.5 153.1,-5.8 	"/>
	<polygon class="st6" points="133.5,219.7 167.1,188.8 193.1,250.7 	"/>
	<polygon class="st8" points="167.1,188.8 226.7,184.3 193.1,250.7 	"/>
	<polygon class="st6" points="20.3,231.6 3.2,153.4 66.5,144.6 	"/>
	<polygon class="st5" points="193.1,250.7 256.1,316.6 222.7,308.3 	"/>
	<polygon class="st7" points="20.3,231.6 66.5,144.6 85.9,253.5 	"/>
	<polygon class="st2" points="66.5,144.6 114.9,100.3 133.5,219.7 	"/>
	<polygon class="st8" points="271.4,156 271.4,195.5 245.8,162.9 245.7,162.8 245.7,162.8 245.3,162.2 245.9,162.1 246,162.1 
		247.5,161.7 	"/>
	<polygon class="st8" points="20.3,231.6 19.9,231 19.9,231 19.8,230.9 19.4,230.4 18.9,229.8 -8,195.5 -8,156 2.5,153.6 2.5,153.5 
		3.2,153.4 3.3,154.1 3.3,154.2 20,230 20.1,230.6 20.1,230.6 20.1,230.6 20.2,230.9 20.2,230.9 	"/>
	<polygon class="st1" points="222.9,95.9 226.2,30 253.3,79.3 	"/>
	<polygon class="st6" points="167.1,188.8 222.9,95.9 226.7,184.3 	"/>
	<polygon class="st4" points="271.4,145.6 271.4,156 247.5,161.7 246,162.1 245.9,162.1 245.3,162.2 245.9,161.9 245.9,161.9 
		247.3,161 	"/>
	<polygon class="st4" points="14.4,131.3 14,132 14,132 13.7,132.6 3.9,152 3.9,152 3.6,152.6 3.5,152.7 3.2,153.4 2.5,153.5 
		2.5,153.6 -8,156 -8,145.6 13.2,132 13.6,131.8 13.8,131.7 	"/>
	<polygon class="st6" points="223.8,325.8 215.5,325.8 194.2,254.3 193.6,252.2 193.5,251.7 193.4,251.4 193.4,251.4 193.4,251.4 
		193.1,250.7 193.5,251.3 193.5,251.3 193.5,251.4 193.5,251.5 194.3,252.9 194.8,253.9 222.3,307.6 222.3,307.6 222.7,308.3 
		222.7,309.1 222.7,309.4 	"/>
	<polygon class="st6" points="226.2,30 226,29.3 225.9,29.2 225.8,28.7 225.8,28.7 225.3,27.1 215.5,-5.8 223.8,-5.8 226,27 
		226,27.8 226,27.8 226.1,29.2 226.1,29.2 	"/>
	<polygon class="st1" points="256.1,316.6 256,317.4 256,317.4 256,317.5 256,317.6 256,318.6 255.8,325.8 237,325.8 236.5,323.6 
		236.4,322.8 236.2,322.1 236.9,321.9 236.9,321.9 254.5,317 255.3,316.8 255.4,316.8 255.4,316.8 255.4,316.8 	"/>
	<polygon class="st1" points="255.8,-5.8 253.4,76.3 253.4,76.3 253.4,78 253.4,78.4 253.3,78.6 253.3,78.6 253.3,79.3 253.2,78.6 
		253.2,78.5 252.9,77.1 252.9,77.1 252.8,76.4 237,-5.8 	"/>
	<polygon class="st6" points="237,325.8 235.3,325.8 235.9,323.6 236.1,322.8 236.2,322.1 236.4,322.8 236.5,323.6 	"/>
	<polygon class="st6" points="253,78.7 253,78.7 252.7,78.2 252.7,78.2 252.3,77.5 252.3,77.5 226.8,31.1 226.8,31.1 226.5,30.6 
		226.5,30.6 226.2,30 226.4,29.3 226.4,29.3 226.4,29.2 226.5,28.7 226.7,28 226.7,27.9 235.3,-5.8 237,-5.8 252.8,76.4 252.9,77.1 
		252.9,77.1 253.2,78.5 253.2,78.6 253.3,79.3 	"/>
	<polygon class="st0" points="3.2,153.4 14.4,131.3 70.2,104.8 	"/>
	<polygon class="st6" points="148.4,29.6 226.2,30 222.9,95.9 	"/>
	<polygon class="st2" points="271.4,84.1 271.4,102.5 254.1,80.3 253.8,79.9 253.8,79.9 253.8,79.9 253.8,79.9 253.3,79.3 254,79.5 
		254,79.5 254.3,79.6 254.5,79.6 	"/>
	<polygon class="st2" points="70.2,104.8 69.6,105.1 69.6,105.1 69.5,105.1 69.4,105.1 69.1,105.3 66.6,106.5 66.6,106.5 15,131 
		14.4,131.3 13.9,130.7 13.9,130.7 13.3,129.9 -8,102.5 -8,84.1 67.9,104.1 67.9,104.2 69.1,104.5 69.1,104.5 69.2,104.5 
		69.3,104.5 69.6,104.6 69.6,104.6 	"/>
	<polygon class="st3" points="271.4,236.7 271.4,286.8 256.6,315.6 256.4,315.9 256.4,315.9 256.4,316 256.4,316 256.1,316.6 
		255.6,316.1 255.6,316.1 255.6,316.1 255.5,316 255.1,315.6 194.8,252.4 194.8,252.4 194.2,251.7 193.8,251.3 193.7,251.2 
		193.6,251.2 193.6,251.2 193.1,250.7 193.8,250.6 193.8,250.6 193.8,250.5 194,250.5 194,250.5 	"/>
	<polygon class="st3" points="20.3,231.6 20,232.3 20,232.3 20,232.3 20,232.3 19.9,232.5 -8,286.8 -8,236.7 19.3,231.8 19.5,231.8 
		19.5,231.8 19.7,231.7 19.7,231.7 	"/>
	<polygon class="st3" points="133.5,219.7 193.1,250.7 159.6,277.2 	"/>
	<polygon class="st6" points="271.4,102.5 271.4,120.1 223.8,96.3 223.8,96.3 223.6,96.3 223.5,96.2 223.5,96.2 222.9,95.9 
		223.5,95.6 223.5,95.6 223.5,95.6 223.6,95.6 223.7,95.5 223.8,95.5 252.7,79.7 252.7,79.7 252.7,79.7 253.3,79.3 253.8,79.9 
		253.8,79.9 253.8,79.9 253.8,79.9 254.1,80.3 	"/>
	<polygon class="st6" points="14.4,131.3 13.7,131 13.6,130.9 12.9,130.6 12.9,130.6 -8,120.1 -8,102.5 13.3,129.9 13.9,130.7 
		13.9,130.7 	"/>
	<polygon class="st4" points="222.7,308.3 256.1,316.6 236.2,322.1 	"/>
</g>
<g>
	<g class="st9">
		<g>
			<g>
				<defs>
					<rect id="SVGID_3_" y="-0.4" width="200" height="307.8"/>
				</defs>
				<clipPath id="SVGID_4_">
					<use xlink:href="#SVGID_3_"  style="overflow:visible;"/>
				</clipPath>
				
					<linearGradient id="SVGID_5_" gradientUnits="userSpaceOnUse" x1="-294.627" y1="766.176" x2="-294.3697" y2="766.176" gradientTransform="matrix(0 -1195.9962 -1195.9962 0 916443.625 -352065.4688)">
					<stop  offset="0" style="stop-color:#626464"/>
					<stop  offset="1" style="stop-color:#2D2B2B"/>
				</linearGradient>
				<rect x="0" y="-0.4" class="st10" width="200" height="307.8"/>
			</g>
		</g>
	</g>
</g>
</svg>
